<?xml version="1.0" encoding="UTF-8" standalone="no"?>
<svg width="5px" height="11px" viewBox="0 0 5 11" version="1.1" xmlns="http://www.w3.org/2000/svg" xmlns:xlink="http://www.w3.org/1999/xlink">
    <!-- Generator: sketchtool 39.1 (31720) - http://www.bohemiancoding.com/sketch -->
    <title>D6D5A98C-912F-4A42-AACD-7920D25703C2</title>
    <desc>Created with sketchtool.</desc>
    <defs></defs>
    <g id="Key-Templates-tk3" stroke="none" stroke-width="1" fill="none" fill-rule="evenodd">
        <g id="Mega-Menu-Data" transform="translate(-472.000000, -311.000000)" fill="#E72742">
            <g id="Data" transform="translate(0.000000, 74.000000)">
                <g id="card" transform="translate(220.000000, 234.000000)">
                    <g id="arrow" transform="translate(252.000000, 3.000000)">
                        <path d="M7.0543403,2.94361101 L2.5,6.74047483 L-2.0543403,2.94361101 C-2.2559686,2.77590841 -2.55522589,2.80331564 -2.72307663,3.00435135 C-2.89122367,3.20553521 -2.86396459,3.50523693 -2.66263259,3.67308767 L2.19585386,7.72313501 C2.28385328,7.79661601 2.39200071,7.83335651 2.5,7.83335651 C2.60814743,7.83335651 2.71614672,7.79661601 2.80414614,7.72313501 L7.66263259,3.67308767 C7.86396459,3.50523693 7.89122367,3.20568335 7.72307663,3.00435135 C7.5546333,2.80272305 7.25641304,2.77546397 7.0543403,2.94361101 Z" id="Shape" transform="translate(2.500000, 5.333357) rotate(-90.000000) translate(-2.500000, -5.333357) "></path>
                    </g>
                </g>
            </g>
        </g>
    </g>
</svg>