<?xml version="1.0" encoding="UTF-8"?>
<svg width="22px" height="22px" viewBox="0 0 22 22" version="1.1" xmlns="http://www.w3.org/2000/svg" xmlns:xlink="http://www.w3.org/1999/xlink">
    <!-- Generator: Sketch 47.1 (45422) - http://www.bohemiancoding.com/sketch -->
    <title>search</title>
    <desc>Created with Sketch.</desc>
    <defs></defs>
    <g id="Dashboard" stroke="none" stroke-width="1" fill="none" fill-rule="evenodd">
        <g id="Portal-Dashboard-Specs" transform="translate(-3490.000000, -136.000000)" fill="#10416C">
            <g id="Group-21" transform="translate(2631.000000, 107.000000)">
                <g id="Group-12" transform="translate(31.000000, 0.000000)">
                    <path d="M837.060294,45.813877 C832.826323,45.813877 829.394047,42.3685795 829.394047,38.1118147 C829.394047,33.85505 832.826323,30.4028756 837.060294,30.4028756 C841.294264,30.4028756 844.727214,33.85505 844.727214,38.1118147 C844.727214,42.3685795 841.294264,45.813877 837.060294,45.813877 L837.060294,45.813877 L837.060294,45.813877 Z M849.330058,49.802445 L843.7707,44.211573 C845.226001,42.5955153 846.120587,40.4636945 846.120587,38.1118147 C846.120587,33.0779669 842.064322,29 837.060294,29 C832.056265,29 828,33.0779669 828,38.1118147 C828,43.1387857 832.056265,47.2167526 837.060294,47.2167526 C839.222379,47.2167526 841.205412,46.4534233 842.763028,45.1812076 L848.3446,50.7927101 C848.617217,51.0677838 849.058115,51.0677838 849.330058,50.7927101 C849.602675,50.5245133 849.602675,50.0775186 849.330058,49.802445 L849.330058,49.802445 L849.330058,49.802445 Z" id="search"></path>
                </g>
            </g>
        </g>
    </g>
</svg>